<svg enable-background="new 0 0 103.7 117.8" viewBox="0 0 103.7 117.8" xmlns="http://www.w3.org/2000/svg"><g fill="#222221"><path d="m103.7 76.9c-.1-1.9-1.1-3.8-2.5-5.1 2-18.7 3.9-39.4-7.4-55.8-9.9-14.4-26.6-17.3-43.1-15.5-16.5 1.7-34.6 7.1-43.8 22.2-9 14.9-8.2 37.1-3.2 53.2.1.4.4.5.7.4-.8 1.7-1 3.7-.3 5.7.6 1.7 1.8 3 3.2 3.9 3.5 13.8 13.1 25 27.5 26.9 6.9 3.5 14.8 5.1 22.8 5 7.4-.1 14.8-2 21-5.8 14.2 2 20.9-17.8 22.5-28.4.1-.4-.1-.7-.3-.9 1.8-1.4 3-3.7 2.9-5.8zm-96.1-51.7c8.7-16.2 27.9-21.5 45-23 16.9-1.4 33.1 2.7 41.8 18.5 8.4 15.2 6.8 33.1 5 49.8-1.1-.5-2.5-.8-3.6-.3-.2-6.6-.7-13.2-1.1-19.2 0-.1 0-.2-.1-.3.4-.4.5-1.2-.1-1.5-7.4-4.3-13.6-9.9-18.5-16.9-.3-.5-.9-.6-1.4-.2-17.1 15.9-38.8 22.1-61.8 21-.2-.6-1.1-.5-1.1.2-.4 6.1-.5 12.5.1 18.8-3-.5-5.6 1-7 3.3-3.5-15.6-5.1-35.5 2.8-50.2zm-2.1 55.6c-1.1-4.2 2.4-7.6 6.5-7.2.1.5.1.9.2 1.4-4.2-.4-7 5.2-3.7 8.2.4.4 1.1-.1.8-.6-1.9-2.9-.3-5.9 3.1-6.1.4 2.9 1 5.8 1.8 8.6-.5 1-4.3.1-5-.1-1.9-.8-3.2-2.3-3.7-4.2zm12 21.3c-4.1-4.5-6.4-10.1-8.9-15.6.4.2.9.3 1.3.4 1.1.2 3.3.4 4.6-.3 1.5 4.9 3.5 9.5 6.3 13.8 2.5 3.8 5.6 6.9 9.1 9.4-4.6-1.4-9-4-12.4-7.7zm18.7 9.2c-.1-.1-.2-.1-.3-.2-6-3.1-11.1-7.7-14.9-14-7.8-13.3-7.3-28-8.2-42.8 15 2.2 31-1.2 44.5-8 3.7-1.9 7.3-4.1 10.7-6.6 2.4-1.8 5.5-5.8 8-4.4 1.1.7 2.2 2.8 3.1 3.7 1.4 1.6 3 3.1 4.6 4.5 2.9 2.6 6 4.8 9.3 6.8-.1.1-.2.3-.2.6.8 13.5 2.5 28.9-1.7 42.1-4.6 14.6-18.5 22.7-33.4 22.9-7.7.1-15.1-1.4-21.5-4.6zm44.5-.7c4.2-3 7.7-6.8 10.1-11.6s3.7-10 4.4-15.5c1.4.7 2.8.6 4.1.1-1.7 10.8-6.6 24.8-18.6 27zm14.7-28.6c.2-2.7.4-5.3.4-8 2.7.1 3.9 2.8 2.3 5-.5.7.6 1.5 1.2.9 2.6-2.8.2-7.5-3.5-7 0-.5 0-1 0-1.5 1.2-.1 2.4.3 3.5.9.1.3.4.5.7.5 1.4 1.2 2.3 3 2.1 4.9-.5 3.5-3.7 4.5-6.7 4.3z"/><path d="m56.1 84.4c1.5-6.1 2-12.5 1.4-18.7-.3-3.6-.2-9.7-4-11.4-.4-.2-.9.3-.5.6 3.3 3 2.9 11.6 2.8 15.7 0 5-.8 9.7-1.9 14.6-.1.6.3 1 .7 1.1.2.1.4.1.6 0 2.6-1.8 6.1.1 5.5 3.3-.6 3.5-4.7 4.1-7.3 2.2-1-.7-1.9.9-1 1.6 3.9 2.7 9.8.9 10.1-4.2.3-3.3-3.4-6-6.4-4.8z"/><path d="m69.4 100.3c-8.2 9.1-19.7 8.9-29.2 2.1-.5-.4-1.2.5-.7.9 8.9 9 23.1 7.4 31.3-1.6.9-.9-.5-2.3-1.4-1.4z"/><path d="m32.6 70.4c-1-.7-2.3-.6-3.1.3-.8.8-.9 2.2-.2 3.1.4.5.9.9 1.6 1 1 .1 2.1-.4 2.5-1.3.6-1.1.1-2.4-.8-3.1z"/><path d="m76.8 67.5c-.7.6-1 1.6-.7 2.5.1.5.3.9.7 1.2 1.4 1.2 3.8.3 4-1.6.1-2-2.4-3.5-4-2.1z"/><path d="m27.2 69c-1.9 1.2-2.6 4-1.4 5.9.3.4 1.1.2.9-.4-.6-1.7-.2-3.3 1.2-4.5.7-.5 0-1.4-.7-1z"/><path d="m85.1 67.6c-.7-1.6-2.3-2.9-4-3.2-.5-.1-1 .7-.4 1 1 .4 1.9.9 2.6 1.9.6.8 1.1 2.2.1 2.9-.8.5-.1 1.8.8 1.3 1.4-.9 1.5-2.6.9-3.9z"/></g></svg>