<?xml version="1.0" encoding="utf-8"?>
<!-- Generator: Adobe Illustrator 22.0.0, SVG Export Plug-In . SVG Version: 6.00 Build 0)  -->
<svg version="1.1" id="OBJECTS" xmlns="http://www.w3.org/2000/svg" xmlns:xlink="http://www.w3.org/1999/xlink" x="0px" y="0px"
	 viewBox="0 0 103.7 117.8" style="enable-background:new 0 0 103.7 117.8;" xml:space="preserve">
<style type="text/css">
	.st0{fill:#222221;}
</style>
<g>
	<path class="st0" d="M103.7,76.9c-0.1-1.9-1.1-3.8-2.5-5.1c2-18.7,3.9-39.4-7.4-55.8C83.9,1.6,67.2-1.3,50.7,0.5
		C34.2,2.2,16.1,7.6,6.9,22.7c-9,14.9-8.2,37.1-3.2,53.2c0.1,0.4,0.4,0.5,0.7,0.4c-0.8,1.7-1,3.7-0.3,5.7c0.6,1.7,1.8,3,3.2,3.9
		c3.5,13.8,13.1,25,27.5,26.9c6.9,3.5,14.8,5.1,22.8,5c7.4-0.1,14.8-2,21-5.8c14.2,2,20.9-17.8,22.5-28.4c0.1-0.4-0.1-0.7-0.3-0.9
		C102.6,81.3,103.8,79,103.7,76.9z M7.6,25.2c8.7-16.2,27.9-21.5,45-23c16.9-1.4,33.1,2.7,41.8,18.5c8.4,15.2,6.8,33.1,5,49.8
		c-1.1-0.5-2.5-0.8-3.6-0.3C95.6,63.6,95.1,57,94.7,51c0-0.1,0-0.2-0.1-0.3c0.4-0.4,0.5-1.2-0.1-1.5c-7.4-4.3-13.6-9.9-18.5-16.9
		c-0.3-0.5-0.9-0.6-1.4-0.2C57.5,48,35.8,54.2,12.8,53.1c-0.2-0.6-1.1-0.5-1.1,0.2c-0.4,6.1-0.5,12.5,0.1,18.8c-3-0.5-5.6,1-7,3.3
		C1.3,59.8-0.3,39.9,7.6,25.2z M5.5,80.8c-1.1-4.2,2.4-7.6,6.5-7.2c0.1,0.5,0.1,0.9,0.2,1.4c-4.2-0.4-7,5.2-3.7,8.2
		c0.4,0.4,1.1-0.1,0.8-0.6c-1.9-2.9-0.3-5.9,3.1-6.1c0.4,2.9,1,5.8,1.8,8.6c-0.5,1-4.3,0.1-5-0.1C7.3,84.2,6,82.7,5.5,80.8z
		 M17.5,102.1c-4.1-4.5-6.4-10.1-8.9-15.6c0.4,0.2,0.9,0.3,1.3,0.4c1.1,0.2,3.3,0.4,4.6-0.3c1.5,4.9,3.5,9.5,6.3,13.8
		c2.5,3.8,5.6,6.9,9.1,9.4C25.3,108.4,20.9,105.8,17.5,102.1z M36.2,111.3c-0.1-0.1-0.2-0.1-0.3-0.2c-6-3.1-11.1-7.7-14.9-14
		c-7.8-13.3-7.3-28-8.2-42.8c15,2.2,31-1.2,44.5-8c3.7-1.9,7.3-4.1,10.7-6.6c2.4-1.8,5.5-5.8,8-4.4c1.1,0.7,2.2,2.8,3.1,3.7
		c1.4,1.6,3,3.1,4.6,4.5c2.9,2.6,6,4.8,9.3,6.8c-0.1,0.1-0.2,0.3-0.2,0.6c0.8,13.5,2.5,28.9-1.7,42.1c-4.6,14.6-18.5,22.7-33.4,22.9
		C50,116,42.6,114.5,36.2,111.3z M80.7,110.6c4.2-3,7.7-6.8,10.1-11.6c2.4-4.8,3.7-10,4.4-15.5c1.4,0.7,2.8,0.6,4.1,0.1
		C97.6,94.4,92.7,108.4,80.7,110.6z M95.4,82C95.4,82,95.4,82,95.4,82c0.2-2.7,0.4-5.3,0.4-8c2.7,0.1,3.9,2.8,2.3,5
		c-0.5,0.7,0.6,1.5,1.2,0.9c2.6-2.8,0.2-7.5-3.5-7c0-0.5,0-1,0-1.5c1.2-0.1,2.4,0.3,3.5,0.9c0.1,0.3,0.4,0.5,0.7,0.5
		c1.4,1.2,2.3,3,2.1,4.9C101.6,81.2,98.4,82.2,95.4,82z"/>
	<path class="st0" d="M56.1,84.4c1.5-6.1,2-12.5,1.4-18.7c-0.3-3.6-0.2-9.7-4-11.4c-0.4-0.2-0.9,0.3-0.5,0.6
		c3.3,3,2.9,11.6,2.8,15.7c0,5-0.8,9.7-1.9,14.6c-0.1,0.6,0.3,1,0.7,1.1c0.2,0.1,0.4,0.1,0.6,0c2.6-1.8,6.1,0.1,5.5,3.3
		c-0.6,3.5-4.7,4.1-7.3,2.2c-1-0.7-1.9,0.9-1,1.6c3.9,2.7,9.8,0.9,10.1-4.2C62.8,85.9,59.1,83.2,56.1,84.4z"/>
	<path class="st0" d="M69.4,100.3c-8.2,9.1-19.7,8.9-29.2,2.1c-0.5-0.4-1.2,0.5-0.7,0.9c8.9,9,23.1,7.4,31.3-1.6
		C71.7,100.8,70.3,99.4,69.4,100.3z"/>
	<path class="st0" d="M32.6,70.4c-1-0.7-2.3-0.6-3.1,0.3c-0.8,0.8-0.9,2.2-0.2,3.1c0.4,0.5,0.9,0.9,1.6,1c1,0.1,2.1-0.4,2.5-1.3
		C34,72.4,33.5,71.1,32.6,70.4z"/>
	<path class="st0" d="M76.8,67.5c-0.7,0.6-1,1.6-0.7,2.5c0,0,0,0,0,0c0.1,0.5,0.3,0.9,0.7,1.2c1.4,1.2,3.8,0.3,4-1.6
		C80.9,67.6,78.4,66.1,76.8,67.5z"/>
	<path class="st0" d="M27.2,69c-1.9,1.2-2.6,4-1.4,5.9c0.3,0.4,1.1,0.2,0.9-0.4c-0.6-1.7-0.2-3.3,1.2-4.5
		C28.6,69.5,27.9,68.6,27.2,69z"/>
	<path class="st0" d="M85.1,67.6c-0.7-1.6-2.3-2.9-4-3.2c-0.5-0.1-1,0.7-0.4,1c1,0.4,1.9,0.9,2.6,1.9c0.6,0.8,1.1,2.2,0.1,2.9
		c-0.8,0.5-0.1,1.8,0.8,1.3C85.6,70.6,85.7,68.9,85.1,67.6z"/>
</g>
</svg>
