<?xml version="1.0" encoding="utf-8"?>
<!-- Generator: Adobe Illustrator 22.0.0, SVG Export Plug-In . SVG Version: 6.00 Build 0)  -->
<svg version="1.1" id="OBJECTS" xmlns="http://www.w3.org/2000/svg" xmlns:xlink="http://www.w3.org/1999/xlink" x="0px" y="0px"
	 viewBox="0 0 111.3 123.5" style="enable-background:new 0 0 111.3 123.5;" xml:space="preserve">
<style type="text/css">
	.st0{fill:#222221;}
</style>
<g>
	<path class="st0" d="M105.3,63.6c10.5-6.4,6.4-23.2-6.2-23.3c0.4-0.9,1.2-1.6,1.6-2.5c0.5-1,0.7-2.2,0.7-3.3c0.1-2.5-0.9-5-2.3-7
		c-2.7-3.6-7-5.4-11.4-4.8c2.1-6.1-0.6-12.7-6.5-15.7C75.2,3.7,68,5.3,63,9.7C59.4-5.8,34.8-1.4,34.3,13.5
		C23.5,2.6,6.4,20.4,13.5,32.7c-5.3-1.4-10.8,1.6-12.4,6.9c-1.5,5,1.1,10.3,5.4,12.8c-9.8,4.2-8.2,17.8,1.5,20.9
		c-1.6,1.5-2.5,3.5-2.6,5.7c-0.1,2.6,1,4.8,2.7,6.2c-3.9,5.2-0.1,13.8,6.6,13.4c-1.2,2-0.7,4.9,0.8,6.7c2.1,2.5,5.9,3,8.9,1.9
		c0.4,0.6,0.8,1.1,1.2,1.6c7.6,10,18.5,14.7,30.9,14.6c10.3-0.1,20.7-3.7,27.3-11.8c2.6,2.1,6.4,2.4,9.2,0.4
		c2.9-2.1,3.9-6.2,2.4-9.4c3.8,0.2,6.7-3.4,8-6.7c1.6-4,0.9-8.1-1.7-11.4c0,0,0,0-0.1-0.1c1.2-1.2,2.1-2.7,2.6-4.3
		c0.2,0.1,0.4,0.1,0.6,0C111.6,76.8,110.5,67.8,105.3,63.6z M6.8,79.6c-0.1-4,3.6-7.6,7.7-7.1c0,0.5,0,1.1,0,1.6c-4-0.5-8,4.3-5,7.9
		c0.2,0.3,0.6,0,0.5-0.3c-0.5-1.7-0.7-3.5,0.6-5c1-1.1,2.4-1.5,3.8-1.4c0,3.5,0.4,7.1,1.1,10.6c-1.9,0.4-3.9,0.1-5.5-0.9
		c0-0.4-0.4-0.6-0.8-0.6C7.8,83.3,6.9,81.6,6.8,79.6z M16.9,104.8c-1.7-1.8-1.8-4.3-0.4-6.3c0.4-0.6-0.4-1.1-0.9-0.7c0,0,0,0,0,0
		c-2.8-0.5-5.4-1.6-6.7-4.4c-1.2-2.5-0.7-5,0.6-7.3c1.8,1.1,4.1,1.5,6.4,1c1.5,6.8,4.2,13.4,8,19.1
		C21.4,106.6,18.8,106.6,16.9,104.8z M56.6,122.2c-28.4,0.3-40.1-25.8-41.3-50.5c0-0.1-0.1-0.2-0.2-0.3c1.9-0.1,3.4-1.4,4.2-3.2
		c1.1-2.6,0.1-5.5-1.2-7.9c3.2,1.3,6.7,2,10,0.7c2.6-1,4.6-3.4,5.3-6c1.7,3.7,5.2,6,9.6,5.5c4-0.4,7.3-3,7.6-6.8
		c2.8,7.5,13.4,7.1,17,0.3c2.3,7,13,8.2,18.7,4.1c-0.8,4.6,4.6,9.6,8.6,11.6c-0.4,0-0.7,0.2-0.8,0.7c-0.1,12.1-2.3,25.1-8.2,35.9
		C79.9,117,68.6,122.1,56.6,122.2z M102.2,95c-1.1,3.2-3.8,7.1-7.6,6.7c-0.4,0-0.6,0.4-0.4,0.7c-0.2,0.2-0.3,0.4-0.2,0.7
		c2.4,6.2-4.1,11.6-9.6,8c0.3-0.4,0.5-0.7,0.8-1.1c4.5-6.5,7.2-14.4,8.7-22.5c2.4,0.3,4.8-0.5,6.6-1.9c0,0.1,0,0.1,0.1,0.2
		C102.8,88.5,103.3,91.8,102.2,95z M103.2,80c-1.3,4.1-5,5.9-9,6.2c0.9-5.3,1.3-10.7,1.3-15.8C101.3,69.6,104.8,74.6,103.2,80z
		 M104.7,78.8c0-0.1,0-0.1,0-0.2c0.6-5.2-2.9-10.3-8.1-9.4c0-0.2-0.1-0.3-0.3-0.4c-3.7-2.3-10.8-7.1-8.1-12.4
		c0.2-0.5-0.1-0.8-0.5-0.9c-0.3-0.2-0.7-0.3-1.1,0c-5.2,4.8-16.5,4.3-18.3-3.8c-0.1-0.4-0.6-0.5-0.9-0.4c-0.3,0-0.6,0.2-0.8,0.5
		c-2.9,8-12.4,7-15.6-0.1c-0.1-0.2-0.3-0.3-0.5-0.2C50.3,51,49,51.2,49.1,52c0.5,4.7-4,7.3-8.2,6.9c-3.7-0.3-5.7-3.2-7.2-6.3
		c0,0-0.1-0.1-0.1-0.1c-0.2-0.8-1.3-0.7-1.4,0.2c-1.1,8.2-8.7,8.3-15,6.1c-0.5-0.2-0.8,0.5-0.5,0.8c-0.2,0.2-0.3,0.5-0.1,0.8
		c1.6,3.3,3.3,9.7-2.2,10.3c-0.3,0-0.5,0.6-0.1,0.7c0.2,0,0.3,0,0.5,0c-0.1,0-0.1,0.1-0.2,0.1c-1.8-0.7-4.2,0.2-5.8,1.3
		c0-0.1-0.1-0.1-0.1-0.1c-7.3-3.7-11-15-1.4-18.8c0.3-0.1,0.5-0.4,0.5-0.7c0,0,0,0,0,0c0.6,0.2,0.9-0.6,0.4-0.9
		c-3.9-2.4-6.9-6.8-5.7-11.6C3.8,35.2,9,33.3,14,34.3c0.4,0.1,0.6-0.1,0.8-0.3c0.3-0.1,0.6-0.4,0.4-0.8c-2.8-5.6-2-12.4,2.4-16.9
		c4.6-4.7,11.5-5.6,16.4-0.8c0.3,0.3,0.6,0.3,0.9,0.1c0.3,0.1,0.5,0,0.6-0.4c0.9-6.3,4.4-11.2,10.7-13c7.2-2,14.1,1.3,15.4,8.8
		c0.1,0.8,1.1,0.8,1.5,0.2c0,0,0,0,0,0c4.8-3.3,10.3-5.5,16-3.3c6,2.4,8.9,8.5,6.7,14.6c-0.1,0.2-0.1,0.3,0,0.5c0,0,0,0,0,0
		c-0.5,0.1-0.4,1,0.1,0.9c4.9-0.6,10.1,0.9,12.6,5.6c1.4,2.6,1.7,5.3,0.4,8c-0.7,1.5-1.4,1.7-1.4,3.2c0,0.4,0.3,0.7,0.7,0.7
		c0,0,0.1,0,0.1,0c11.7,0.8,15.7,15.1,5.4,21.3c-0.7,0.5-0.3,1.4,0.4,1.5C107.8,68.4,110.6,74.9,104.7,78.8z"/>
	<path class="st0" d="M95.9,71.7c-0.5,0.1-0.3,0.7,0.1,0.8c4.3,0.5,6.1,5.3,2.3,8c-0.7,0.5-0.1,1.7,0.7,1.2
		C103.9,79,101.6,70.9,95.9,71.7z"/>
	<path class="st0" d="M49.8,37.8c-2.5,1-4.6,0.9-6.6-1.1c-0.1-0.1-0.1-0.1-0.2-0.1c-0.4-0.5-1.3-0.3-1.4,0.4
		c-0.5,3.6-2.7,6.3-6.4,6.7c-3.9,0.5-8.3-2.3-6.6-6.7c0.2-0.5-0.5-0.9-0.9-0.6c-0.2,0-0.4,0-0.5,0.1c-1,0.9-3,2.8-4.3,1.1
		c-0.8-1-0.4-3.9,1.2-3.8c0.5,0,0.6-0.7,0.1-0.8c-2.4-0.5-3.3,3.2-2.5,4.9c1,2.2,3.4,1.7,5.1,0.6c-0.7,3.6,3.1,6.7,6.8,7
		c4.6,0.4,8.9-2.8,9.5-7.3c1.8,2,5.3,2.5,7.4,0.8C51,38.5,50.5,37.5,49.8,37.8z"/>
	<path class="st0" d="M77.6,25.4c-1.5,0.7-2.7,1.4-4.4,1c-1.7-0.4-2.9-1.5-4.1-2.6c0,0-0.1-0.1-0.2-0.1c-0.3-0.4-1-0.2-1.1,0.4
		c-0.4,3.9-5.6,3.6-6.4,0.1c-0.1-0.5-1-0.4-1,0.1c0.1,2.5,2.5,4.2,4.9,4.1c1.7-0.1,3.5-1.4,3.8-3c2.3,2.5,6.9,4.1,9.4,1.1
		C79,25.9,78.3,25,77.6,25.4z"/>
	<path class="st0" d="M57.7,90.5c-1.3,3-5.9,3.7-8,1c-2.3-2.8,0.5-6.2,3.6-4.9c0.1,0.1,0.3,0.2,0.4,0.2c0,0,0,0,0,0
		c0.3,0.2,0.7-0.1,0.7-0.4c0-0.1,0.1-0.2,0.1-0.3c0-6.8,0.2-13.6-0.2-20.4c0-0.6-1-0.6-1,0c-0.4,6.4-0.2,12.9-0.2,19.3
		c-1.2-0.6-2.7-0.5-3.9,0.2c-1.9,1.2-2.4,3.7-1.6,5.8c1.9,4.8,9.6,4.9,11.6,0.2C59.6,90.4,58.2,89.5,57.7,90.5z"/>
	<path class="st0" d="M31.4,74.2c-0.3-0.2-0.6-0.3-1-0.3c-0.8-0.4-1.8,0.1-2.3,0.6c-0.6,0.7-0.9,1.8-0.3,2.7
		c0.9,1.6,3.5,1.6,4.4-0.1C32.6,76.1,32.4,74.8,31.4,74.2z"/>
	<path class="st0" d="M81.8,73.6C81.8,73.6,81.8,73.6,81.8,73.6c-0.2,0-0.3-0.1-0.5,0c-1.6,0.4-2.1,2.6-1.1,3.8
		c1.1,1.2,3.3,0.9,4-0.6C85,75.2,83.6,73,81.8,73.6z"/>
	<path class="st0" d="M32.7,70.6c-2.2-0.9-5.3-0.6-6.9,1.3c-0.3,0.4,0.1,1,0.5,0.7c1.9-1.2,3.8-1.6,6-0.8
		C33.1,72.2,33.4,71,32.7,70.6z"/>
	<path class="st0" d="M86.6,70.6c-2.5-1.5-5.8-1.6-8.3,0c-0.4,0.3-0.2,1.1,0.4,0.9c2.4-0.9,4.9-0.9,7.2,0.4
		C86.7,72.4,87.4,71.1,86.6,70.6z"/>
	<path class="st0" d="M73.4,104.4c-8.8,10-21.6,10.9-32.5,3.6c-0.4-0.3-0.9,0.4-0.6,0.7c10.2,9.1,25.8,7.3,34.3-3.1
		C75.3,104.8,74.1,103.5,73.4,104.4z"/>
</g>
</svg>
