<?xml version="1.0" encoding="utf-8"?>
<!-- Generator: Adobe Illustrator 22.0.0, SVG Export Plug-In . SVG Version: 6.00 Build 0)  -->
<svg version="1.1" id="OBJECTS" xmlns="http://www.w3.org/2000/svg" xmlns:xlink="http://www.w3.org/1999/xlink" x="0px" y="0px"
	 viewBox="0 0 126.1 123.9" style="enable-background:new 0 0 126.1 123.9;" xml:space="preserve">
<style type="text/css">
	.st0{fill:#222221;}
	.st1{fill:#D16A70;}
</style>
<g>
	<path class="st0" d="M122.2,98.6c-1.8-3.8-3.8-7.9-3.5-12.2c0.2-3.9,2.8-7.3,3.1-11.2c0.4-6-5.4-9.7-6.2-15.5
		c-0.9-5.9,2.2-12.1-0.4-17.9c-2.7-6.2-9.6-8.8-11.7-15.6c-1.7-5.5-1.5-11.6-5.1-16.5C94.9,5,89.1,2.4,83.2,3.2
		C79.3,3.7,74.5,5.7,73,9.4C72.4-1.1,54.3-0.8,46.8,0.8c-5.9,1.2-11.1,4-14,9.5c-2.1,4-3.8,7.3-7.4,10.4c-2.9,2.5-6,4.7-8.4,7.7
		c-1.6,2-2.8,4.3-3.2,6.9c-0.7,5.3,1.4,10-1,15.2c-3,6.6-8.9,11.4-10.5,18.8c-0.6,3-0.7,6.1,0.1,9.1c1.2,4.6,4.7,8.2,3.3,13.3
		c-1.6,5.8-6.6,10.8-5.6,17.2c1,6.6,7.6,10.6,13.7,11.6c6.1,0.9,16.2,1,21.1-3.3c0.3-0.2,0.3-0.6,0.1-0.8c1.9-3.6-0.1-7-2.3-10.2
		c-2.3-3.4-3.3-6.4-2-10.4c0.3-1,0.8-2,1.2-3c5.4,8.6,16.9,10.9,26.4,11.2c9.7,0.3,21.8-0.4,29.4-7.2c0.1,0.2,0.1,0.5,0.2,0.7
		c0.6,1.5,1.8,2.7,2.8,3.9c2.8,3.4,3.3,6.2,3.1,10.4c-0.2,3.8-0.2,7.3,2.7,10.1c0.1,0.1,0.3,0.2,0.5,0.2c0.1,0.1,0.2,0.1,0.3,0.2
		c8.8,2.5,25.9,3.6,28.5-8.4C126.9,108.6,124.4,103.3,122.2,98.6z M5.4,115.1c-7.4-6.7-1.9-13.5,1-20.6c1-2.4,1.7-5,1.1-7.6
		c-0.7-3.4-3.1-6.2-3.8-9.6c-1.9-9.4,4.3-15.8,8.9-23.1c1.4-2.2,2.6-4.5,3-7.1c0.7-4.3-1.1-8.7,0.1-12.9
		c2.2-7.5,10.7-10.8,15.1-16.6c2.5-3.4,3.3-7.7,6.6-10.6c2.9-2.6,6.8-3.8,10.5-4.5c4.2-0.8,11.6-1.3,17,0.4c-4.2,1-8.4,1.7-12.6,2.1
		c-2.9,0.2-6,0.2-8.8,1.2c-5.3,1.8-6.4,6.3-9,10.7c-3.4,5.7-9.8,7.9-13.7,13.1c-3.5,4.7-2.1,9.9-2.2,15.4
		c-0.2,7.8-6.8,12.2-9.8,18.9c-2.3,5.1-2.9,10.7-0.6,15.9c2.1,4.9,4.2,8.6,2.9,14c-0.8,3.6-2.5,6.9-3.5,10.4
		c-1.3,4.8-1.2,9.8,2.5,13.6c0,0,0.1,0,0.1,0.1C8.5,117.3,6.9,116.4,5.4,115.1z M10.4,118c0.4,0,0.7-0.5,0.4-0.8
		c-6.2-6.4-1.2-14.5,0.9-21.5c1.3-4.5,1.3-8.4-0.7-12.6c-1.8-3.8-3.5-7.2-3.1-11.6c0.3-4,2-7.8,4.2-11.2c2.7-4.2,6.7-7.6,7.5-12.8
		c1-7-2-13.1,3.7-18.9c3.3-3.4,7.7-5.4,10.7-9.2c1.5-1.9,2.3-4,3.4-6.1c2.3-4.5,5.6-6.6,10.6-7.2C54.2,5.4,60,5.1,66,3.1
		c2.7,1.1,4.8,2.9,5.4,5.7c-6.1-1.3-12.8-2.1-18.6,0.7c-6.1,3-8.6,10-14.5,13.4c-4.4,2.6-9.5,4.4-12.6,8.7c-1.5,2.1-2.4,4.6-2.7,7.2
		c-0.4,4,1.4,8,0.2,11.9c-1.8,6-8.1,9.5-10.4,15.5c-2,5.3-1.4,10.9,1,15.9c2,4.1,4.7,7.7,4.8,12.4c0.1,5.2-3,8.3-4.9,12.8
		c-1.8,4.2-1.2,8.3,1.4,11.8C13.6,118.9,11.9,118.6,10.4,118z M19,119.3c-0.8,0-1.6,0-2.4-0.1c0-0.1,0-0.2-0.1-0.2
		c-6-7.7,1.1-13,2.9-20.2c1.2-4.8-0.2-9-2.4-13.2c-3.6-6.8-6.2-13.6-2.2-21.1c2.4-4.4,7-7.5,9-12.2c2.1-5.1-0.7-10.4,0.7-15.6
		c1.9-7.3,8.6-9.5,14.4-12.9c4.4-2.6,6.5-6.2,9.9-9.8c6.3-6.6,14.5-5.5,22.8-4.5c0.1,0.9,0.1,1.8-0.1,2.8c0,0,0,0,0,0
		c-5.8-1.1-11.4,2.2-16.6,4.6c-4.8,2.3-12.1,4.5-15.7,8.7c-2.2,2.6-2.6,6.1-4.9,8.8c-1.6,1.7-3.7,3.1-4.6,5.3
		c-0.8,1.8-0.5,3.5-0.2,5.3c0.9,6.4-1.7,9-5.2,13.6c-2.7,3.7-4.1,7.4-1.7,11.6c2.4,4.2,4.5,7.8,2,12.6c-1.1,2.1-3.2,4-2.5,6.5
		c0.9,3.5,3.7,1.9,3.1,8c-0.3,3-2.1,5.6-2.1,8.8c0,4.9,2.2,9.3,5.9,12.4C25.7,119.3,21.9,119.3,19,119.3z M28.5,99.6
		c0,5.7,8.5,10.9,4.9,16.6c-0.1,0.2-0.1,0.3-0.1,0.4c-1,0.7-2.2,1.2-3.4,1.5c0-0.1,0-0.3-0.1-0.4c-6.1-5.3-6.1-11.6-4-18.8
		c0.4-1.5,1-3.2,0.6-4.8c-0.6-2.6-2.1-3-2.3-6c-0.3-4.3,3.5-7.4,2.6-12.2c-0.4-2.3-1.7-3.9-2.8-5.9c-3.1-5.5-0.3-9.1,3.1-13.3
		c2.5-3.1,4.3-5.8,3.9-9.9c-0.1-1.4-0.8-3-0.8-4.4c0.2-3.2,1.7-4.4,3.5-6.2c1.3-1.3,2.5-2.5,3.4-4.1c1.8-3.3,2-5.8,5.6-8.1
		c2.5-1.6,5.4-2.8,8.1-4.1c6.4-3.1,13.4-7.5,20.7-7.2c0,0,0,0,0,0c0,0,0,0,0,0.1c0,0.1,0,0.2,0,0.3c-2.5,6.5-13.8,5.9-19.2,7.9
		c-3.5,1.3-6.7,3.4-8.4,6.8c-1.5,3-1.6,6-3.8,8.7c-1.1,1.4-2.6,2.6-3.4,4.3c-2.6,5,0.1,10.9-2.2,16.1c-1.8,4.1-5.2,7.5-5.4,12.1
		c-0.3,5.2,3.3,9.6,3.6,14.8C33,89.6,28.5,94.1,28.5,99.6z M87.4,95c-7.1,7-18.8,7.7-28.2,7.6c-10.6-0.2-19.9-2.7-26.8-10.9
		c0.5-1.1,0.9-2.3,1.3-3.4c1.4-5.2-1-9.4-2.4-14.4c-2.1-7.3,2.6-10.8,5-17c0.9-2.2,1-4.4,1-6.7c-0.1-4.5,0.1-7.7,3.1-11.5
		c1.3-1.6,2.4-2.8,3.2-4.7c1.4-3.4,1.6-6.4,4.8-9c5.3-4.2,12.4-3.6,18.4-5.9c2.3-0.9,4.2-2.2,5.2-4.1c-0.5,3.1-0.1,6.1,1.2,9
		c2.2,4.6,7.2,7.1,9,11.8c1.8,4.8-1.2,9.9,0.6,14.8c1.4,3.8,3.9,6.1,3.6,10.6c-0.2,2.5-1.2,4.9-1.5,7.4c-0.6,5.5,3.7,8.5,4.3,13.7
		C89.6,86.4,87.2,90.8,87.4,95z M97.6,121.2c0-0.1-0.1-0.1-0.1-0.2c-4.3-4.3-1.1-10.2-2.4-15.3c-1.3-5-6.6-6.9-6-12.7
		c0.5-4.3,2.3-8.2,1.3-12.6c-0.5-2.1-1.6-3.6-2.6-5.5c-2-3.9-1.4-6.7-0.5-10.6c0.8-3.6,0.8-6.5-0.9-9.8c-1.7-3.4-3.2-6.2-2.8-10.2
		c0.2-2,0.7-4.1,0.5-6.2c-0.3-3.5-2.4-6.1-4.8-8.5c-4.1-4.2-6.7-8.5-6.5-14c3.1,0.9,5.9,2.7,7.7,5.5c1.8,2.8,1.6,5.9,2.5,9
		c1.4,4.9,6.6,6.7,8,11.7c1.3,4.9-0.4,10.2,1.2,15c0.5,1.5,1.3,2.7,2.3,3.9c2.7,3.7,3.6,6.5,2.6,11.1c-0.8,3.8-2.4,7.6-2,11.5
		c0.5,5,5,8,6.3,12.7c2.5,8.6-2.8,17.7,1.3,26.1C100.9,122,99.2,121.6,97.6,121.2C97.6,121.2,97.6,121.2,97.6,121.2z M104.1,122.4
		c0,0,0-0.1,0-0.1c-4.8-9.2,2.2-19.8-2.5-29c-1.6-3-4.4-5.3-5.1-8.8c-0.6-3,0.3-6.1,1-8.9c1-3.9,2.2-8.1,0.4-11.9
		c-1-2.1-3-3.6-3.9-5.7c-1.6-3.7-1-7.5-1.1-11.4c-0.1-3.9-1-7.6-3.7-10.5c-2.7-2.8-4.6-4.5-5.4-8.5c-0.5-2.3-0.7-4.3-1.9-6.4
		c-2-3.3-5.1-5.4-8.8-6.2c0.1-0.8,0.2-1.6,0.4-2.4c0,0,0-0.1,0-0.1c0.1-0.9,0.3-1.7,0.7-2.5c0,0.1,0.1,0.1,0.2,0.1
		c3.6,0.6,7.7,1.3,10.9,3.1c3.7,2.1,4.8,5.6,5,9.6c0.3,4-0.2,8.3,1.7,12c2.1,4.2,6.4,6.2,9.6,9.3c6,5.8,4.9,13.2,3.3,20.7
		c-0.8,3.8-2.1,8.2-0.3,11.9c0.9,1.8,2.3,3.1,3.7,4.5c3.2,3.1,4.9,6.4,4.2,11c-0.9,5.9-4.8,10.9-5.6,16.9c-0.7,5.6,3.1,8.5,4.5,13.4
		C108.9,122.7,106.4,122.6,104.1,122.4z M112.3,122.4c-0.6-2.3-2-4-3.1-6.1c-2.6-4.9-0.9-9.8,1.1-14.6c1.9-4.7,4.5-9.8,3.1-15
		c-1.7-6.2-8.8-7.9-8.7-15c0.1-6.2,3.1-12,2.5-18.3c-0.4-4.5-2.5-8-6-10.9c-2-1.7-4.4-3.2-6.2-5.1c-2.8-3-3.4-6.5-3.6-10.5
		c-0.2-3.9,0.1-8.2-2.3-11.6c-3.1-4.3-9.8-5.4-14.7-5.8c0.5-0.7,1-1.4,1.7-2c0.1,0.1,0.1,0.1,0.2,0.1c9.6-2.3,19.4-0.6,19.9,11.1
		C96.4,23.1,95.7,28,98,32c2.7,4.7,8.7,5.3,11.4,10.1c3.4,6.2,1.8,13.5,1.6,20.2c-0.2,4.6,0.2,9.4,2.7,13.4
		c2.7,4.4-0.3,9.5,1.6,14.4c1.4,3.6,3.2,6.2,2.8,10.2c-0.3,2.9-1.6,5.6-2.1,8.5c-0.8,4.4,0.4,8.1,3.6,11.1
		C117.4,121.3,114.9,122,112.3,122.4z M121.9,118c-0.5,0.5-1,1-1.6,1.4c-7.3-6.9-0.7-13.4-1.2-21.2c-0.1-2.2-1-4.1-1.9-6.1
		c-0.9-1.9-2-3.8-2-6c-0.1-1.8,0.9-3.5,1.1-5.2c0.2-1.6,0.1-2.6-0.7-4c-1.9-3.6-3.4-6.4-3.6-10.6c-0.4-6.2,1.3-12.5,0.2-18.7
		c-0.8-4.6-2.9-8.4-6.9-10.9c-3.9-2.5-6.7-3.9-7.7-8.8c-0.7-3.3-0.2-6.7-0.4-10C96.4,6.4,86.6,4.3,77.1,6.7
		c3.1-1.9,7.4-2.4,10.6-1.9c4.3,0.7,8.1,3.3,10.3,7c3.1,5.2,2.5,11.6,4.8,17.1c2.5,5.9,9.6,8.6,11.4,14.9c1.7,6-1.7,12.3,0.1,18.4
		c0.8,2.6,2.5,4.5,3.8,6.8c2.4,4.1,1.9,7.3,0.4,11.4c-2,5.5-1.8,9.9,0.5,15.3C121.8,102.1,128,111.5,121.9,118z"/>
	<path class="st0" d="M63.9,70.5c-0.7-0.6-1.7-0.8-2.5-0.6c1.3-7.6,1.9-16-1.9-22.9c-0.2-0.3-0.7-0.1-0.6,0.2
		c2.3,7.9,2.4,15.1,1,23.1c-0.1,0.4,0.2,0.7,0.5,0.8c0.1,0.1,0.3,0.1,0.5,0c1-0.6,2.2-0.3,2.6,0.9c0.3,1.1-0.3,2.1-1.2,2.7
		c-0.8,0.6-1.6,0.8-2.5,0.5c-0.8-0.2-1.3-0.9-2.1-1.3c-0.5-0.2-1,0.2-0.8,0.7c0.3,1.5,2.2,2.3,3.6,2.3c1.7,0,3.3-1,4-2.5
		C65,73.3,65,71.5,63.9,70.5z"/>
	<path class="st0" d="M46.1,60.4c-0.5-0.8-1.4-1.2-2.3-0.9c-0.1,0-0.1,0.1-0.2,0.1c-0.2,0-0.4,0.1-0.6,0.2c-0.8,0.4-1.2,1.3-1.1,2.1
		c0.3,2,2.8,2.6,4,1C46.5,62.2,46.6,61.2,46.1,60.4z"/>
	<path class="st0" d="M81.6,60.8c-1-1.6-4.2-1.4-4.4,0.7c0,0.6,0.1,1,0.5,1.4c0.2,0.4,0.5,0.8,0.9,1C80.4,64.7,82.7,62.6,81.6,60.8z
		"/>
	<path class="st0" d="M81.7,57.7c-0.3-0.1-0.6,0.5-0.3,0.6c1.7,0.7,2.4,2,2.4,3.8c0,0.6,1,0.8,1.1,0.2
		C85.3,60.3,83.7,58.1,81.7,57.7z"/>
	<path class="st0" d="M40.8,56.5c-1.8,0.7-3.7,3-3.1,5c0.1,0.4,0.7,0.4,0.8,0c0.2-0.8,0.3-1.5,0.8-2.3c0.5-0.7,1.1-1.2,1.9-1.6
		C41.9,57.3,41.5,56.2,40.8,56.5z"/>
	<path class="st0" d="M76.7,86.5c-8,10.4-21,9.4-30.3,1.3c-0.4-0.4-0.9,0.2-0.6,0.6c8.3,10.4,24.8,10,32.3-1
		C78.7,86.5,77.3,85.7,76.7,86.5z"/>
	<path class="st1" d="M44.7,70.7c-0.4-1.1-0.9-1.9-1.9-2.5c-1-0.6-2.2-0.7-3.3-0.4c-1.5,0.4-2.8,1.7-3.1,3.2
		c-0.2,1.1-0.2,2.2,0.4,3.3c0.5,0.9,1.5,1.7,2.5,1.9c1.1,0.2,2.3,0.2,3.3-0.4c0.5-0.3,1-0.8,1.4-1.3c0.4-0.4,0.6-0.9,0.8-1.5
		C44.9,72.1,44.9,71.4,44.7,70.7z"/>
	<path class="st1" d="M84.1,68.7c-1.3-1.6-3.6-2.2-5.5-1.1c-0.1,0.1-0.2,0.1-0.3,0.2c-2.2,1.3-2.8,4.2-1.2,6.3
		c0.7,0.9,1.6,1.4,2.8,1.6c0.6,0.1,1.1,0.1,1.7-0.1c0.7-0.2,1.3-0.6,1.9-1.1l0.3-0.2c0.8-0.6,1.3-2.1,1.2-3
		C85,70.3,84.7,69.5,84.1,68.7z"/>
</g>
</svg>
