<?xml version="1.0" encoding="utf-8"?>
<!-- Generator: Adobe Illustrator 22.0.0, SVG Export Plug-In . SVG Version: 6.00 Build 0)  -->
<svg version="1.1" id="OBJECTS" xmlns="http://www.w3.org/2000/svg" xmlns:xlink="http://www.w3.org/1999/xlink" x="0px" y="0px"
	 viewBox="0 0 101.3 114" style="enable-background:new 0 0 101.3 114;" xml:space="preserve">
<style type="text/css">
	.st0{fill:#222221;}
	.st1{fill:#D16A70;}
</style>
<g>
	<path class="st0" d="M101.3,106.5c-5.2-23.3,2.1-47.1-1.5-70.5C97.6,21.6,86.7-4.5,67.7,6.1c-5.1-4.6-15-6.2-20.9-6.1
		C33.9,0.1,20.1,5.5,11.2,15C1.4,25.6,1.4,41.8,1.6,55.3C1.8,63.3,2,71.3,1.3,79.4c-0.8,8.4-1.9,16.6-0.8,25
		c0.1,0.5,0.5,0.6,0.9,0.5c0,0.2,0,0.3,0.2,0.4c13.8,8.5,31.4,9.1,47.1,8.5c17.3-0.7,35-1.7,51.8-6c0.4-0.1,0.5-0.4,0.6-0.6
		C101.3,107,101.4,106.8,101.3,106.5z M34.8,3.3c6.3-1.7,20.3-2.6,28.6,1.4c-20.5-5.9-43,4.9-56.6,20.4C11.6,13.7,23,6.4,34.8,3.3z
		 M5.7,28.2c6.7-8,14.6-14.8,24.3-19.1c8.9-4,18-5,27.3-4.2c-11-0.3-22.3,4.6-30.9,11.1C15.8,24.1,7,35.4,3.1,48.2
		C3.2,41.4,3.7,34.7,5.7,28.2z M2.1,104.5c-0.1,0-0.1,0-0.2,0c0.1-0.1,0.1-0.3,0.1-0.5c-1.8-13,1.6-26.2,1.4-39.2
		c0-4.1-0.2-8.2-0.3-12.3c3.5-13.4,11.5-25,22.2-33.8C37.8,8.3,52.1,4.5,67.7,8c0.1,0.1,0.2,0.2,0.2,0.3C57.7,8.9,47.5,14,39.2,19.7
		c-8.9,6-17.5,13.5-23.8,22.1C8.5,51.1,6.7,62.7,5.2,73.9c-1.5,11.5-1.3,23.2,4.3,33.5C7,106.5,4.6,105.6,2.1,104.5z M69.5,15.9
		C69.5,15.9,69.5,15.9,69.5,15.9c-2.3,4.8-4.6,9.8-8.5,13.5c-3.8,3.8-8.8,6.5-13.6,8.7c-6.3,2.9-12.8,4.8-19.4,6.1
		c8.5-4.2,17-8.6,24.5-14.4c6.8-5.2,13.7-11.9,16.1-20.3c0,0,0.1,0,0.1-0.1c0.9,1.6,1.3,3.5,1,5.7C69.6,15.4,69.4,15.6,69.5,15.9z
		 M14.5,47.2c0,0.1-0.1,0.1-0.1,0.2c-0.5,5-0.9,10.2-0.9,15.4c-3.3,7.1-5.3,14.6-5.8,22.4c-0.4,5.7-0.3,12.8,1.4,18.8
		C5.1,94.5,5,84.1,6.4,74c1.6-11.7,3.5-23.3,10.9-32.8c6.3-8.1,14.6-15.3,23.1-21c8.5-5.7,17.4-8.8,27.2-11.1
		c-9.1,4.2-17.6,10-25.5,16.1c-7.9,6-16,12.7-22.3,20.5c0,0,0,0,0,0c-1.6,0.2-3.3,0.5-5,0.7C14.5,46.4,14.3,46.9,14.5,47.2z
		 M44,25.2c7.6-5.7,15.6-10.4,23.7-15.1c-7.2,17.7-28.3,27.1-44.2,35c0,0-0.1,0.1-0.1,0.1c-0.6,0.1-1.3,0.2-1.9,0.3
		C28.8,38.4,35.8,31.3,44,25.2z M11.9,108.2c-3.6-6.6-3.7-15.8-3.2-23c0.4-7.3,2.1-14.3,4.8-21c0.1,5.3,0.7,10.5,2.2,15.5
		c-2.4,9.8-1.8,20.9,2.4,30.2C16,109.3,14,108.8,11.9,108.2z M19,110.1c-3.2-9.8-4.5-19-2.9-29c0.8,2.2,1.7,4.4,2.9,6.5
		c0.8,1.5,1.7,2.8,2.7,4c-0.1,6.5,0.1,13.1,2.1,19.3C22.2,110.7,20.6,110.4,19,110.1z M24.7,111.1c-1.7-6.2-2.1-12.4-2.4-18.7
		c2.5,3,5.6,5.3,8.9,7.1c-0.7,2-0.5,4.5-0.3,6.4c0.2,2.1,0.6,4.1,1.3,6C29.7,111.7,27.2,111.5,24.7,111.1z M32.9,112
		c-0.5-1.8-0.9-3.7-1-5.6c-0.1-0.7,0.3-5.1,0.2-6.5c2.4,1.2,5,2.1,7.7,2.8c0,0.1,0,0.2,0.1,0.2c-0.1,0.3-0.2,1.1-0.2,1.3
		c-0.1,1.1-0.1,2.1,0,3.2c0.1,1.7,0.5,3.3,1.2,4.8C38.2,112.3,35.6,112.2,32.9,112z M48.1,112.2c-2.2,0.1-4.4,0.1-6.6,0.1
		c0,0,0,0,0,0c-0.6-2.3-1.1-4.5-1-6.9c0-0.5,0.4-1.5,0.4-2.3c2.5,0.5,5,0.9,7.6,1C47.9,106.7,47.7,109.5,48.1,112.2z M32.6,98.8
		c-0.1-0.2-0.3-0.3-0.4-0.3c0,0-0.1,0-0.1,0c-2.9-1.6-5.6-3.6-7.8-6c-10.9-12.3-9.8-29.9-9.1-45.1c11.3-0.3,22.7-3.2,32.9-7.9
		c4.9-2.3,10.1-5.1,14-9c3.8-3.7,6.2-8.6,8.4-13.3c10.8,11.4,15.6,26.7,16.2,42.2c0.3,8,0.3,17.1-3,24.5
		c-2.8,6.2-7.8,11.2-13.7,14.4C59.3,104,43.9,104.6,32.6,98.8z M71.7,16.1c15.2,7.3,17,29.4,16.8,44.2c0,1.8-0.1,3.7-0.3,5.5
		c0-3.7-0.1-7.4-0.4-10.9C86.7,40.6,81.8,26.6,71.7,16.1z M57.2,111.7c-2.2,0.1-4.4,0.3-6.6,0.4c-0.6,0-1.2,0.1-1.8,0.1
		c-0.1-2.8,0.1-5.4,0.7-8.1c2.5,0.1,5,0,7.4-0.4C57.4,106.4,57.4,109,57.2,111.7z M68.7,110.9c-3.6,0.3-7.2,0.6-10.9,0.8
		c0.5-2.7,0.4-5.4-0.1-8c3.6-0.5,7.1-1.5,10.4-3C68.9,104.1,69.2,107.4,68.7,110.9z M68.7,100.4c2.4-1.1,4.6-2.4,6.7-4
		c-1.3,4.6-1.4,9.3-0.4,13.9c-1.7,0.2-3.5,0.4-5.2,0.5C70.2,107.3,69.9,103.7,68.7,100.4z M75.9,110.2c-1-4.9-0.7-9.7,0.7-14.5
		c0-0.1,0-0.2,0-0.3c1.5-1.2,2.8-2.6,4.1-4.1c2.5-3,4.2-6.4,5.4-10c-1.6,9.2-3.3,18.3-2.4,27.5c0,0.2,0.1,0.3,0.2,0.4
		C81.2,109.6,78.5,109.9,75.9,110.2z M84.6,109.1c0-0.1,0.1-0.2,0.1-0.3c-0.4-10.3,1.7-20.2,3.4-30.3c1.5-9,2.1-18.1,1.3-27.2
		C88.3,37.7,85.3,20.4,70.9,15c0.2-1.3,0.2-2.4,0-3.5c5.2,2,10.1,4.6,13.4,9.2c2.6,3.6,4.1,8,5.4,12.2c2.8,9.1,3.7,18.6,2.9,28.1
		c-0.8,9-2,17.9-2.6,26.9c-0.4,6.9-1.1,13.8,2.2,20.2C89.6,108.4,87.1,108.7,84.6,109.1z M93.1,107.7c0,0,0-0.1,0-0.1
		c-4.4-8.4-2.2-19.4-1.4-28.4c0.9-10.2,2.9-20.2,2.1-30.5c-0.6-8.3-2.5-16.7-6.1-24.2c-3.4-7.2-9.3-11.2-16.7-13.7
		c-0.1,0-0.2,0-0.3,0c-0.2-0.7-0.4-1.3-0.8-1.8c8.5,0,16.9,4.3,21.2,11.8c4.9,8.7,5.3,21,5.4,30.7c0.2,9.7-1.4,19.2-1.9,28.9
		c-0.4,8.7-1,18.3,1.3,26.8C95.1,107.3,94.1,107.5,93.1,107.7z M97.3,106.8c-2.8-10.5-1.9-23-0.8-33.6c1.2-11.6,1.7-22.9,0.2-34.5
		c-1-8-2.2-16.7-8-22.8c-5-5.2-11.9-7.9-19.1-7.4c-0.1-0.2-0.3-0.5-0.5-0.7c0-0.1-0.1-0.1-0.1-0.2c-0.2-0.3-0.5-0.6-0.8-0.9
		C92.1-1.2,98.7,30.9,99.1,48c0.5,19.5-3.7,39.1,0.4,58.4C98.8,106.5,98,106.7,97.3,106.8z"/>
	<path class="st0" d="M56.1,70.1c-0.3-2.8-3.4-4.6-5.8-3.5c0.7-6.2,0.7-12.5-0.5-18.6c-0.1-0.5-0.9-0.4-0.8,0.1
		c0.3,6.6,0.5,13-0.3,19.5c-0.1,0.8,1,0.9,1.4,0.2c2-0.8,4.4-0.1,4.6,2.4c0.2,2.5-2.6,3.9-4.6,2.6c-0.8-0.5-1.6,0.8-0.8,1.3
		C52.4,76.2,56.5,73.8,56.1,70.1z"/>
	<path class="st0" d="M35.6,61.3c-0.9-3-3.8-5.3-7-4.9c-3,0.3-5.5,2.9-5.6,5.9c0,0.6,0.8,0.7,1,0.1c0.7-2.2,2.3-4.3,4.9-4.5
		c2.5-0.2,4.5,1.6,5.3,3.8C34.4,62.7,35.8,62.3,35.6,61.3z"/>
	<path class="st0" d="M83.7,59.1c-1.4-3.1-4.4-5.7-7.9-5.5c-3.4,0.2-5.8,3.1-7.1,6.1c-0.2,0.6,0.7,0.9,1,0.4c1.5-2.3,3.5-5,6.5-5
		c3,0,4.8,2.4,6.2,4.7C82.9,60.7,84.1,59.9,83.7,59.1z"/>
	<path class="st0" d="M68.3,87.1c-7.7,10.4-20,8.1-29.8,2.6c-0.4-0.2-0.9,0.3-0.5,0.6c9.3,7.9,24.2,8,31.7-2.4
		C70.3,87.1,68.9,86.3,68.3,87.1z"/>
	<path class="st1" d="M29.4,69.8c-0.4-0.6-0.9-1.1-1.5-1.5c-0.7-0.4-1.4-0.6-2.1-0.6c-0.8,0-1.5,0.2-2.1,0.6
		c-0.6,0.4-1.1,0.9-1.5,1.5c-0.4,0.8-0.7,1.6-0.6,2.5c0,0.6,0.1,1.1,0.4,1.6c0.2,0.5,0.5,1,0.9,1.4c0.7,0.7,1.9,1.3,3,1.2
		c1.1,0,2.2-0.4,3-1.2c0.2-0.3,0.4-0.6,0.7-0.9c0.4-0.7,0.6-1.4,0.6-2.1C30.1,71.3,29.7,70.6,29.4,69.8z"/>
	<path class="st1" d="M80.4,68.9c-0.8-0.7-1.9-1.4-3-1.2c-0.1,0-0.2,0-0.3,0c-1.1,0.1-2.1,0.4-3,1.2c-0.7,0.7-1.3,1.9-1.2,3
		c0,1.1,0.4,2.2,1.2,3c0.3,0.2,0.6,0.4,0.9,0.7c0.7,0.4,1.4,0.6,2.1,0.6c0.1,0,0.2,0,0.3,0c1,0.1,2.3-0.6,3-1.2
		c0.7-0.7,1.3-1.9,1.2-3C81.6,70.8,81.3,69.7,80.4,68.9z"/>
</g>
</svg>
