<?xml version="1.0" encoding="utf-8"?>
<!-- Generator: Adobe Illustrator 22.0.0, SVG Export Plug-In . SVG Version: 6.00 Build 0)  -->
<svg version="1.1" id="OBJECTS" xmlns="http://www.w3.org/2000/svg" xmlns:xlink="http://www.w3.org/1999/xlink" x="0px" y="0px"
	 viewBox="0 0 122.7 130.2" style="enable-background:new 0 0 122.7 130.2;" xml:space="preserve">
<style type="text/css">
	.st0{fill:#222221;}
	.st1{fill:#D16A70;}
</style>
<g>
	<path class="st0" d="M112.7,56.9c-0.2-5.4-0.9-10.9-1.8-16.1c-2.1-11.9-4.6-26.3-15-33.9c-1.6-1.1-3.2-2.1-4.9-2.9
		c-0.1-0.1-0.3-0.2-0.5-0.2C80-1.2,67.7-0.3,56.3,1.2c-0.3,0-0.5,0.2-0.6,0.4C35.8,3.1,23,22.7,19.8,41.1
		c-1.2,6.8-1.7,14.2-1.4,21.7c-5.1-0.1-8,5.3-7.5,10c0.1,0.9,0.3,1.6,0.5,2.3c-2.5,0.4-4.5,1.8-7.2,1c-0.7-0.2-1.2,0.7-0.7,1.2
		c2.4,2.7,2,6.3,5.3,8.3c0.4,0.2,0.8,0.4,1.3,0.6c-5.3,2.1-9.2,7.1-10,12.9c-1.3,10,7.4,20.5,0.6,29.8c-0.5,0.6,0.3,1.3,0.9,1.2
		c16.1-2.7,31.4-16.5,25.8-33.9c0.5,0.1,1,0.2,1.5,0.2c2.2,3,4.8,5.8,7.8,8.2c16.7,13.3,44.5,13.5,60.1-1.4
		c8.4-8,12.8-18.2,14.7-29.1c5.5,0.3,10.9-3.3,11-9.3C122.7,59.9,117.7,54.7,112.7,56.9z M107.5,32.6c1.9,7.9,3.4,16.2,3.7,24.6
		c-0.3-0.1-0.6-0.2-0.8-0.2c0,0,0-0.1,0-0.1c-2.3-18.2-7.4-35.6-18.5-50.4C101.6,12,104.9,22,107.5,32.6z M109.1,54.8
		C99.3,40.3,92.2,25.4,91.7,7.7C101.3,22.2,106.6,37.6,109.1,54.8z M91,6.6c0,0.1,0.1,0.1,0.1,0.2c-1.7,18.1,7.4,35.5,17.7,49.7
		c-8.6-3.2-13.8-12.8-16.4-21.2C89.4,25.9,89.9,16.3,91,6.6z M85.3,7.9C66.9,29.5,47.9,50,21.3,61.2C38.4,38.1,58.9,19.5,85.3,7.9z
		 M20.5,61c3.3-15,7.2-30.8,19.2-41.4C52.6,8.1,69.9,5.5,86.6,6C60.2,17.1,35.3,36.2,20.5,61z M20.5,62.3
		C48.8,52.5,69.3,29.1,88,6.8c0.4-0.2,0.7-0.3,1.1-0.5c-8.3,29.5-40.2,49.8-68.8,56.2C20.4,62.4,20.5,62.3,20.5,62.3z M20.3,52.2
		C21.4,29.3,33.2,4.3,59,2.9c0.3,0,0.5-0.2,0.6-0.4c9.7-1,19.9-1.4,29,2.4C71.3,4,53,6.4,39.5,18.1c-11.6,10-16.9,25.6-19.3,40.5
		C20.2,56.4,20.2,54.3,20.3,52.2z M18.5,63.8c0.1,0.9,0.1,1.9,0.2,2.8c0,0,0,0-0.1,0c-4,0.2-7.6,6.6-3.7,9.3
		c0.4,0.3,0.8-0.3,0.5-0.7c-1.2-1.4-1.1-3.4-0.1-5c0.9-1.3,2.1-1.8,3.4-2.5c0.4,3.6,1,7.2,1.9,10.6c-3.9,0.2-7.5-0.8-8.3-5.3
		C11.8,68.9,14.1,64.5,18.5,63.8z M18,85.5c-1.3-2.5,0.7-4.7,3.1-5.2c0.1,0,0.1-0.1,0.1-0.1c0.5,1.9,1.2,3.7,1.9,5.5
		C21.8,87.4,19.3,87.8,18,85.5z M23.8,87.2c0.3,0.7,0.6,1.3,0.9,2c-0.2-0.2-0.4-0.4-0.6-0.6c-0.3-0.3-0.7-0.6-1-0.8
		C23.3,87.6,23.5,87.4,23.8,87.2z M7.6,82.5c-0.9-1.5-1.3-3.2-2.1-4.7c2.3,0.1,4.1-0.9,6.5-1.4c1.4,2.3,4,3.3,6.9,3.5
		c-0.8,0.3-1.4,0.9-1.8,1.6c-2.1-0.1-3.5-0.9-5.1-2.2c-0.4-0.3-0.9,0.3-0.6,0.6c1.1,1.7,3.3,2.4,5.3,2.3c-0.4,0.8-0.5,1.8-0.3,2.7
		C13.2,85.7,9.6,85.7,7.6,82.5z M10.2,103c1.3-4.5,2.9-9,5.6-12.9c0.4-0.6,1.1-1.2,1.6-1.9c-1.9,13.5-3.3,28.2-13.3,38.1
		C7.2,118.9,8,110.8,10.2,103z M15.1,86.6c0,0,0.1-0.1,0.1-0.1c0.5-0.2,1.1-0.3,1.6-0.6c0,0.1,0.1,0.2,0.2,0.3c0,0.1,0,0.2,0.1,0.3
		c0,0.1,0.1,0.2,0.1,0.2c0,0,0,0.1,0.1,0.1c-0.9,0.9-2.2,2.6-2.3,2.8c-1,1.4-1.9,3-2.6,4.6c-1.4,3-2.4,6.2-3.3,9.4
		c-1.4,5.4-2.4,10.9-3.6,16.3C2.5,107.7,5.7,95.2,15.1,86.6z M3.1,110.3c-1.2-4.5-2.3-9-0.9-13.6c1.5-4.7,5.2-8,9.5-10
		c0.4,0.1,0.8,0.1,1.2,0.1C6.8,93.1,3.1,101.6,3.1,110.3z M18.5,87.8c0.7,0.4,1.4,0.6,2.1,0.6c-0.6,1.8,0,3.8,1.3,5.2
		c0.6,0.7,1.4,1.3,2.3,1.7c0.5,14.1-8.3,25.4-20.1,32C15,117.3,16.5,101.8,18.5,87.8z M5,127.8c12.2-6.1,20.8-18,20.6-32
		c0.1,0,0.2,0.1,0.3,0.1C31.4,111.6,19,123.9,5,127.8z M21.6,88.3c0.3-0.1,0.6-0.2,0.9-0.3c0.4,0.4,0.7,0.7,1.1,1
		c0.4,0.4,0.7,0.8,1.2,1.1c0.2,0.1,0.3,0,0.4-0.1c0.9,1.7,1.9,3.4,2.9,5C24.6,94.3,20.6,92.4,21.6,88.3z M110.4,72.7
		c-0.3,0.3-0.3,0.7-0.2,1.1c-1.2,7-3.6,13.8-7.5,19.9c-12.4,19.5-37.7,24.1-58,14.1c-16.9-8.3-23.2-26.4-24.3-44.2
		c16.3-2.1,32.7-11.7,45.4-21.6C76,33.9,84.5,23.8,89,11.8c-0.7,9.9-0.3,19.5,3.8,29c3.5,8,9.2,16.3,18.4,18c0,0,0,0,0.1,0
		C111.3,63.4,111.1,68.1,110.4,72.7z M112,72.6c0.6-3.8,0.8-7.7,0.8-11.6c1.4,0.1,2.8,0.4,3.6,1.7c0.8,1.3,0.4,3-0.8,3.9
		c-0.8,0.6-0.1,1.9,0.8,1.3c1.8-1.1,2.4-3.6,1.5-5.5c-0.9-1.8-3.2-2.9-5.1-2.4c0-0.7,0-1.4,0-2.1c5.1-1.2,9.3,3.8,8,8.7
		C119.7,70.7,115.9,72.7,112,72.6z"/>
	<path class="st0" d="M67.5,80.2c0.5-8.7,0.1-17.5-1.9-26c-0.1-0.5-1-0.4-1,0.1c1.2,8.9,1.8,17.6,1.2,26.5c0,0.7,0.6,0.9,1.1,0.8
		c0.2,0.1,0.4,0.2,0.6,0c1.2-0.7,2.7-1,3.8,0c0.9,0.8,1.1,2.2,0.5,3.3c-0.5,0.9-1.6,1.5-2.6,1.7c-1.3,0.3-2.2-0.1-3.1-1
		c-0.5-0.5-1.5,0-1.3,0.8c0.5,1.8,2.8,2.3,4.5,2c1.8-0.3,3.6-1.5,4.2-3.3C74.7,81.3,70.5,78.2,67.5,80.2z"/>
	<path class="st0" d="M39.9,68c-0.7-0.6-1.7-0.8-2.4-0.2c0,0,0,0,0,0c-0.2,0.1-0.4,0.2-0.6,0.3c-0.7,0.6-0.9,1.5-0.5,2.3
		c0.8,1.8,3.4,1.7,4-0.2C40.7,69.5,40.5,68.6,39.9,68z"/>
	<path class="st0" d="M97.6,67.6c-0.5-1-1.8-1.1-2.6-0.7c-0.4,0.1-0.7,0.3-0.9,0.6c-0.6,0.8-0.4,1.9,0.3,2.5
		c0.7,0.7,1.8,0.7,2.6,0.1C97.7,69.6,98.1,68.5,97.6,67.6z"/>
	<path class="st0" d="M33.6,72.7c-0.6-0.9-1.2-1.8-1.2-3c0-1.2,0.5-2,1.1-3c0.3-0.5-0.3-1.2-0.9-0.9c-2.3,1.7-2.1,6,0.3,7.5
		C33.4,73.6,33.9,73.1,33.6,72.7z"/>
	<path class="st0" d="M100.9,65.5c-0.5-0.4-1,0.4-0.6,0.8c0.7,0.8,1.1,1.7,1.1,2.8c0,1.2-0.7,1.8-1.2,2.8c-0.2,0.5,0.3,1.3,0.9,0.9
		C103.6,71.1,103.2,67.2,100.9,65.5z"/>
	<path class="st0" d="M83.4,96.6c-11.1,8.9-23.9,7.9-35.7,1.3c-0.4-0.2-0.8,0.3-0.4,0.6c10.6,9.6,26.8,7.8,37.4-0.7
		C85.5,97.1,84.3,95.9,83.4,96.6z"/>
	<path class="st1" d="M43.7,85.8c0-0.4-0.1-0.7-0.1-0.9c0-0.7-0.2-1.4-0.6-2c-0.6-1-1.7-1.9-2.8-2.2c-1.2-0.3-2.6-0.2-3.6,0.5
		c-1,0.6-1.9,1.6-2.2,2.8c-0.3,1.2-0.2,2.3,0.2,3.4c0.6,1.4,1.7,2.4,3.2,2.9c1.4,0.4,2.9,0,4-0.8C42.9,88.6,43.9,87.2,43.7,85.8z"/>
	<path class="st1" d="M101.2,82.7c0-0.1,0-0.1,0-0.2c-0.2-0.4-0.3-0.8-0.5-1.1c-0.3-0.5-0.7-1-1.2-1.3c-0.8-0.6-1.8-1.1-2.9-1
		c-0.8,0-1.6,0.3-2.4,0.6c-0.9,0.5-2,1.8-2.2,2.8c0,0.1,0,0.1,0,0.2c-0.3,1.6-0.1,3.4,1.2,4.6c0.9,0.9,2.1,1.4,3.4,1.4
		c1.2,0,2.5-0.5,3.4-1.4C101.3,86.1,101.6,84.4,101.2,82.7z"/>
</g>
</svg>
