<?xml version="1.0" encoding="utf-8"?>
<!-- Generator: Adobe Illustrator 22.0.0, SVG Export Plug-In . SVG Version: 6.00 Build 0)  -->
<svg version="1.1" id="OBJECTS" xmlns="http://www.w3.org/2000/svg" xmlns:xlink="http://www.w3.org/1999/xlink" x="0px" y="0px"
	 viewBox="0 0 130.9 102.5" style="enable-background:new 0 0 130.9 102.5;" xml:space="preserve">
<style type="text/css">
	.st0{fill:#222221;}
	.st1{fill:#D16A70;}
</style>
<g>
	<path class="st0" d="M128.8,69.2c-1.7-5.6,0.6-9.1,0.9-14.4c0.2-2.5-0.5-4.6-1.6-6.9c-2.4-4.8-4.6-7.8-5.1-13.4
		c-0.6-6.3-0.6-12.2-6.1-16.3c-5-3.6-11.4-4.3-16.5-7.6c-3.3-2.1-4.9-5.8-8.1-7.9c-2.3-1.6-5.1-2.1-7.8-2.4
		c-5.9-0.6-13.3-0.7-17.7,3.9c-0.1,0.1-0.1,0.1-0.1,0.2c-1.2-1-2.6-1.9-4.2-2.4C46.7-3.5,27,6.9,17.6,19.5
		c-3.1,4.1-2.9,10.2-6.3,13.8c-2.9,3.1-6.2,4.1-7.8,8.3c-1,2.6-1.1,5.4-0.5,8.2c0.9,3.8,0.8,6.3-0.5,10.3c-0.8,2.5-2,4.7-2.3,7.4
		c-0.4,3.4,0.1,7.1,2.2,9.9c2,2.7,2.8,3,3.5,7c0.2,1,0,2,0.6,2.9c1.9,3.2,7.2,2.9,10.3,3c6.7,0.2,13.3-0.4,19.9-1.6c0,0,0.1,0,0.1,0
		c8.3,8.7,19.7,14.1,32.8,13.8c10.6-0.3,20.1-3.7,26.8-11.6c0.1,0,0.1,0.1,0.2,0.1c11.5,2.5,31.7,4.3,34.3-11.9
		C131.3,75.4,129.9,72.6,128.8,69.2z M127.7,51.7c-0.7-1.5-1.3-3-1.8-4.5C126.6,48.6,127.3,50,127.7,51.7
		C127.7,51.6,127.7,51.7,127.7,51.7z M67.7,5.1c5-4.1,15.2-4.6,21.2-2.2c5.2,2.1,7.8,8,13,10.6c4.2,2,8.9,3,12.8,5.5
		c7.1,4.4,5.6,12.1,6.8,19.2c0.1,0.5,0.2,1,0.4,1.5c-2.1-2.1-5-3.2-6.1-6.8c-1.7-5.4-3.1-10.1-8.8-12.6c-2.7-1.1-5.4-1.1-8.2-1.1
		c-4.8,0-7.5-0.5-10.6-4.8c-0.7-1-1.1-2.1-1.9-3.1c-4.1-4.4-10.2-3.2-14.9-0.6c-1-2.1-2.3-4-3.9-5.5C67.6,5.1,67.7,5.1,67.7,5.1z
		 M5.7,41.1c1.9-3.7,6-4.7,8.2-8c1.1-1.7,1.3-3.5,1.8-5.4c1-3.3,2.1-5.8,4.3-8.4c3-3.6,6.6-6.7,10.5-9.2c8.4-5.6,19.7-9.4,29.8-6.8
		c3.2,0.8,5.9,2.8,8,5.4C63.9,7.9,60,3.9,55.3,5.5c-1.4,0.5-2.5,1.6-3.7,2.5c-3.7,2.9-6.4,2.6-10.6,2.9c-4.6,0.3-9,2.4-12.2,5.7
		c-4,4.1-4.2,9.6-7.2,14.3c-3.1,4.8-9,5.9-12.3,10.3c-2.4,3.1-3.1,7.4-3.5,11.4C5.2,48.6,3.4,45.5,5.7,41.1z M3,75.2
		c-1.5-2.7-1.5-6.2-0.9-9.1c0.6-2.7,2.2-5.3,3.2-7.9c-0.1,2.3-0.1,4.5,0.2,6.8c0.5,3.9,0.4,7.8,0.8,11.6c0.1,1.2,0.4,2.3,0.8,3.3
		C6.1,78.1,4,77.1,3,75.2z M7.6,83.6c-0.4-0.8-0.1-2.1-0.3-3.1c1.2,2.8,3.1,5.2,5.2,7.5C10.5,87.2,8.7,85.9,7.6,83.6z M18.6,88.6
		c-0.6,0-1.2,0-1.8,0c-1,0-1.9-0.1-2.8-0.3c-1.8-2.2-3.8-4.4-5.1-6.9c-1.9-3.8-1.1-7.7-1.5-11.7C6.8,63.8,6.2,58.7,7,52.8
		c0.4-3.2,0.8-6.9,2.4-9.8c1.5-2.7,4.2-4.2,6.7-5.8c3.2-2,5.7-4,7.3-7.4c2.2-4.6,3-9.5,6.9-13.1c2.6-2.4,5.8-3.9,9.2-4.5
		c2.6-0.4,5.3,0.2,7.9-0.4c3-0.7,4.5-3.6,7.2-4.7C60,5,63.9,9.8,69.1,9.8c1.1,1.6,1.9,3.5,2.5,5.4c-8.8-1.2-18.9-0.5-25,6.7
		c-2.1,2.5-3.4,5.5-5.9,7.6c-2.7,2.3-5.9,3.2-9.3,4.1c-4.5,1.3-8.8,2.8-12.5,5.8c-3.1,2.5-5,5.5-6.3,9.3c-1.5,4.5-5,9.3-4.5,14.2
		c0.3,3.5,2.5,6.7,4.8,9.2c2.6,2.8,6.4,5.3,6.6,9.6C19.6,84,18.5,86.2,18.6,88.6z M19.8,88.6c-0.1-3.5,1.6-6.6,0.2-10
		c-1.3-3-4.1-5-6.3-7.4c-2.8-3.1-5.2-7-4.3-11.4c0.4-2.2,1.9-4.2,2.8-6.3c2.3-5.5,3.4-10.4,8.7-14c6.7-4.6,16.2-4.1,21.9-10.2
		c3.6-3.9,5.3-8.5,10.4-11c5.8-2.9,12.3-2.4,18.6-2.3c0.5,2.1,0.7,4.3,0.4,6.4c0,0-0.1,0-0.1,0c-5.1,0.3-10.3,1.2-14.6,4
		c-5,3.3-6.9,9.7-12.2,12.7C38.4,43,23.7,41.6,23.7,53c-4.4-0.8-9.4,2.7-9.5,7.3c-0.1,4.8,3.6,7.7,7.8,8.3c-1.8,3.1-0.6,5,1.5,8.1
		c2.2,3.4,1.2,6,1.1,9.6c0,0.9,0.1,1.6,0.5,2.2C23.2,88.5,21.5,88.6,19.8,88.6z M67.8,31.1c-1.1,0.9-2.3,1.7-3,3
		c-1.5,2.4-0.6,5-4,6.6c-4,1.8-9.6-0.3-14,0.4c-8.6,1.4-13.1,14.2-22,12.6c0-0.1,0-0.2,0-0.2c0.1-0.1,0.2-0.2,0.2-0.4
		c0.5-11.5,16.7-8.8,23.3-14.4c3.2-2.7,4.9-6.8,8-9.6c4.4-4,10.4-4.7,15.9-6.1C71.7,26,70.3,28.9,67.8,31.1z M71.9,29.9
		c5.5-0.5,11-1.1,14.6,4.1c1.2,1.7,1.6,3.7,3.3,5c1.3,1,2.8,1.3,4.4,1.5c5.8,0.9,10.5,1.7,12.3,7.9c-0.1-0.1-0.2-0.2-0.4-0.2
		c-4.1-0.1-8.7,0.4-12.7-0.6c-5-1.2-5.1-4-7.6-7.2c-4.6-5.9-13.7,2.3-16.3-8.2c0-0.2-0.1-0.3-0.2-0.4c0.8-0.7,1.6-1.4,2.3-2.2
		C71.6,29.8,71.7,29.9,71.9,29.9z M19.4,63.3c0.5,0.2,0.8-0.6,0.3-0.8c-1.1-0.7-0.9-2.3-0.2-3.1c1-1.1,2.5-1.1,3.8-1.2
		c0.2,3,0.7,6,1.4,8.9c-4.3,0.4-9.2-1.8-9-6.8c0.2-4.2,4-5.5,7.4-6c0,0.9,0,1.7,0.1,2.6c-1.9-0.2-4.2,0.5-5.2,2.3
		C17.3,60.6,17.7,62.7,19.4,63.3z M26.6,88.3c-1.3-1.9,0.3-6.6-0.4-8.9c-1.2-4-5-6.3-3.2-10.8c0.8,0,1.5,0,2.3-0.1
		c2,6.9,5.5,13.3,10.2,18.6C32.4,87.7,29.5,88.1,26.6,88.3z M69.5,100.4c-12.1,0.4-23.3-4.2-31.6-13c-8.6-9.1-11.9-20.6-13.4-32.6
		c8.5,2.4,12.4-8.1,19.1-11.1c6.1-2.8,16.8,2.1,21-4.3c1.5-2.3,1.7-4.4,3.4-6.3c0.7,2.7,2.2,5,4.8,6.2c4.9,2.3,8.9-1.4,12.8,4.4
		c1.7,2.6,2.4,4.3,5.6,5.3c4,1.3,8.9,0.9,13.2,0.5c0,0,0,0.1,0,0.1c1.1,11.5-0.2,23.8-5.8,34.1C92.6,95,82.1,100.1,69.5,100.4z
		 M97.6,89.2c0.4-0.5,0.8-1.1,1.2-1.7c4.2-6.5,6.6-14.1,7.5-21.8c0.7,0,1.5-0.1,2.2-0.2c-1.9,1.6-1.2,4.2-0.4,6.8
		c1.1,3.8,2.3,7.2-0.3,10.6c-0.6,0.8-1.4,1.6-2,2.5c-1.1,1.7-1.6,3.2-1.5,5C102,90.1,99.7,89.6,97.6,89.2z M106.7,53
		c3.2,0.8,4.4,3.8,2.9,6.7c-0.4,0.8,0.7,1.4,1.2,0.7c2.4-3.4-0.1-8.2-4.2-8.4c-0.1-0.8-0.1-1.6-0.2-2.4c3.2,0.4,6.4,2.2,7.5,5.5
		c1.5,4.9-3.1,8.4-7.5,9.1C106.9,60.4,106.9,56.7,106.7,53z M105.6,90.6c-0.4-4.7,5-7.1,5.8-11.4c0.8-4.1-5.9-11.1-0.9-13.9
		c0.2-0.1,0.2-0.4,0.1-0.5c3.1-1.6,5.6-4.8,5.3-8.1c-0.4-4.3-4.1-7.5-8.3-8.1c-0.7-3-2.3-5.5-5-7.2c-4.6-2.8-10.2-0.5-13.9-5.3
		c-2.1-2.8-2.5-5.2-6.1-6.6c-3.4-1.4-7.3-0.9-10.8-0.2c0.1-0.1,0.1-0.2,0.2-0.3c1.8-2.7,2.3-6.1,2-9.3c2.4,0,4.9-0.1,7.2,0.6
		c3.2,0.9,4.7,2.9,6.8,5.1c1.9,2,3.7,3.1,6.5,3.6c5.2,0.9,11.4-0.9,14.6,4.7c1.8,3.1,1.7,7,3.7,10c2.5,3.8,6.4,5.4,7.8,10.1
		c1.8,5.7-0.7,9.9-3.2,14.7c-1.3,2.5-2.7,5.4-2.2,8.3c0.6,3.9,6.1,7.1,5,11.3c-0.1,0.3,0.1,0.6,0.3,0.7
		C116,91.2,110.8,91.3,105.6,90.6z M123,87.4c-0.5,0.3-1,0.7-1.5,0.9c0.6-2.8-0.5-4.6-2.3-6.9c-5.5-7.1,0.2-11.8,2.5-18.4
		c1.2-3.6,1.1-7.6-0.4-11c-2-4.6-6.8-6.8-8.7-11.5c-1.3-3.1-1.4-6.7-3.8-9.3c-2.3-2.5-5.5-2.9-8.7-3c-3.9-0.2-7.5-0.2-10.6-2.9
		c-1.6-1.3-2.6-3.2-4.3-4.4c-3.3-2.2-7.4-2.2-11.2-1.9c-0.3-2.5-1.1-5.1-2.2-7.6c2.8-1.3,6.9-2.8,9.9-1.6c2.6,1.1,4.5,3.6,6,5.9
		c1.2,1.8,2.3,3.1,4.4,3.9c5.7,2.3,11.7-0.8,17,3.2c5.3,3.9,3.8,10.3,7.7,14.7c2.4,2.6,5.1,4.2,6.6,7.8c1.4,3.2,2.5,6.1,4.4,9.1
		c0,0.1,0.1,0.1,0.1,0.1c-0.2,4.3-2.6,8.4-1.6,12.8c0.7,3,2.2,5.6,2.5,8.6C129.3,80.7,126.7,84.7,123,87.4z"/>
	<path class="st0" d="M67.2,72.7c2.8-9.2,2-19.8-1.3-28.6c-0.2-0.6-1.2-0.4-1,0.3c2.4,10.1,2.2,18.8,0.4,28.9
		c-0.1,0.3,0.1,0.6,0.2,0.7c0.1,0.3,0.5,0.6,0.8,0.4c2.8-1.3,7.4,0.6,6.2,4.2c-1.1,3.4-4.9,2.7-7.3,1.3c-0.8-0.5-1.7,0.6-1,1.3
		c3.3,3.1,9.4,1.8,10.2-2.9C75.1,74.3,70.7,71.5,67.2,72.7z"/>
	<path class="st0" d="M86.7,85.1c-9.6,11.4-24.9,11.8-36,2.3c-0.6-0.5-1.3,0.3-0.8,0.8c10.6,11.4,28.4,9.8,38.1-1.9
		C88.7,85.5,87.5,84.2,86.7,85.1z"/>
	<path class="st0" d="M43,59.1c-0.7-0.4-1.5-0.3-2.1,0c-1.6,0.5-2.3,2.6-1.2,3.9c1.2,1.3,3.5,1.1,4.2-0.5c0.1-0.2,0.1-0.4,0.2-0.6
		C44.5,60.9,44.1,59.7,43,59.1z"/>
	<path class="st0" d="M47.3,55.7c-3.3-2-8.4-0.5-11,2c-0.4,0.4,0.1,1,0.6,0.7c1.5-1,3.1-1.8,4.9-2c1.8-0.3,3.5,0.2,5.3,0.4
		C47.6,56.9,47.8,56,47.3,55.7z"/>
	<path class="st0" d="M90.1,58.6c-0.1-0.1-0.1-0.2-0.3-0.3c-2.4-0.7-4,2.3-2.7,4.2c1.4,2,4.4,1.7,5.1-0.6
		C92.8,60.2,91.6,58.7,90.1,58.6z"/>
	<path class="st0" d="M94.6,55.7c-2.9-2.1-7.7-1.5-9.8,1.4c-0.3,0.4,0.3,1.1,0.8,0.8c2.6-1.9,5.3-2.4,8.2-0.9
		C94.7,57.5,95.4,56.3,94.6,55.7z"/>
	<path class="st1" d="M45.8,74.1c-0.1-1.3-0.5-2.6-1.5-3.5c-0.9-0.9-2.3-1.5-3.5-1.5c-2.8,0.1-4.8,2.2-5,5c0,0.1,0,0.3,0,0.4
		c-0.1,1.2,0.6,2.7,1.5,3.5c0.9,0.9,2.3,1.5,3.5,1.5c1.3-0.1,2.6-0.5,3.5-1.5c0.9-0.9,1.5-2.2,1.5-3.5
		C45.9,74.3,45.9,74.2,45.8,74.1z"/>
	<path class="st1" d="M97.9,71.6c-0.4-1.2-1.1-2.3-2.3-3c-2.7-1.6-6.6-0.2-7.3,3c-0.2,1.1-0.2,1.8,0,2.9c0.3,1.6,1.9,3,3.4,3.4
		c1.6,0.4,3.7,0,4.8-1.3c0.1-0.1,0.1-0.1,0.2-0.2C97.8,75.1,98.4,73.3,97.9,71.6z"/>
</g>
</svg>
